<?xml version="1.0" standalone="no"?>
<!DOCTYPE svg PUBLIC "-//W3C//DTD SVG 20010904//EN"
 "http://www.w3.org/TR/2001/REC-SVG-20010904/DTD/svg10.dtd">
<svg version="1.0" xmlns="http://www.w3.org/2000/svg"
 width="700.000000pt" height="700.000000pt" viewBox="0 0 700.000000 700.000000"
 preserveAspectRatio="xMidYMid meet">
<metadata>
Created by potrace 1.14, written by Peter Selinger 2001-2017
</metadata>
<g transform="translate(0.000000,700.000000) scale(0.100000,-0.100000)"
fill="#000000" stroke="none">
<path d="M3715 6969 c-128 -68 -260 -185 -333 -294 -81 -121 -165 -341 -188
-493 -3 -20 -7 -48 -10 -62 -8 -50 -18 -217 -18 -315 0 -107 11 -315 18 -337
3 -7 7 -31 10 -53 10 -78 27 -155 65 -297 21 -78 42 -156 45 -173 3 -16 9 -41
13 -55 3 -14 7 -99 9 -190 4 -255 -27 -405 -131 -627 -69 -146 -143 -249 -293
-407 -82 -87 -151 -177 -192 -251 -12 -22 -26 -45 -32 -52 -12 -15 -15 -14
152 -67 360 -114 590 -300 687 -555 8 -22 11 -19 55 45 64 97 118 187 158 268
55 108 108 150 192 149 84 -1 159 -63 178 -147 8 -39 2 -83 -34 -226 -20 -76
-63 -212 -81 -255 -35 -82 -99 -221 -105 -230 -4 -5 -22 -37 -40 -70 -18 -33
-56 -100 -86 -150 -29 -49 -57 -109 -62 -131 -49 -218 145 -390 365 -323 88
28 168 84 302 216 253 249 432 514 563 833 55 132 68 173 117 364 33 128 45
154 90 187 27 20 29 25 24 73 -41 399 -195 820 -436 1196 -134 209 -218 319
-522 685 -174 209 -208 255 -277 375 -122 214 -203 468 -224 705 -8 91 -8 295
0 340 3 17 8 46 11 65 10 60 43 193 59 238 18 50 11 53 -49 21z"/>
<path d="M2009 4338 c-314 -310 -477 -632 -554 -1098 -11 -63 -13 -353 -4
-440 56 -515 333 -994 749 -1298 l45 -32 17 22 c10 13 21 32 24 42 26 79 163
253 283 359 49 43 136 107 146 107 13 0 255 171 346 244 117 93 296 264 357
339 l40 49 -14 45 c-24 79 -59 146 -109 207 -125 154 -289 252 -570 341 -221
69 -344 137 -459 251 -123 123 -216 295 -242 449 -4 22 -8 49 -11 60 -16 84 6
293 42 400 8 21 13 41 11 42 -2 2 -45 -38 -97 -89z"/>
<path d="M2166 3879 c19 -101 122 -269 221 -359 97 -89 213 -154 213 -120 0
16 79 140 133 209 l50 64 -54 -8 c-106 -15 -199 -6 -292 29 -101 38 -195 106
-249 180 l-28 39 6 -34z"/>
<path d="M5195 3209 c-30 -14 -46 -45 -62 -114 -21 -94 -22 -96 -42 -165 -67
-228 -192 -494 -326 -695 -48 -71 -90 -132 -94 -135 -3 -3 -33 -39 -66 -80
-73 -91 -248 -268 -330 -332 -222 -173 -477 -160 -617 32 -41 56 -68 150 -63
223 7 102 10 110 93 247 65 107 184 343 214 425 53 142 111 358 110 407 -2 78
-81 117 -148 73 -13 -8 -25 -23 -29 -35 -10 -33 -154 -282 -187 -325 -5 -5
-43 -57 -86 -115 -74 -99 -240 -276 -347 -368 -92 -79 -309 -238 -410 -302
-123 -76 -171 -114 -258 -204 -128 -131 -231 -315 -276 -493 -92 -362 3 -833
239 -1185 42 -62 46 -66 54 -45 72 175 140 281 251 392 167 168 283 224 699
340 185 51 380 132 556 230 54 31 219 139 255 167 441 350 716 736 878 1233
28 86 73 265 82 330 4 22 8 47 10 55 2 8 7 44 10 80 3 36 8 83 10 105 4 45 7
136 6 177 -2 56 -75 101 -126 77z"/>
</g>
</svg>
