<svg id="Capa_1" data-name="Capa 1" xmlns="http://www.w3.org/2000/svg" xmlns:xlink="http://www.w3.org/1999/xlink" viewBox="0 0 1333.21 412.81"><defs><style>.cls-1{fill:#f4f7fc;}.cls-2{fill:#343c46;}.cls-3{fill:url(#Degradado_sin_nombre_36);}.cls-4{fill:#626d7c;}.cls-5{fill:url(#Degradado_sin_nombre_34);}</style><linearGradient id="Degradado_sin_nombre_36" x1="204.96" y1="1327.21" x2="0" y2="1327.21" gradientTransform="matrix(1, 0, 0, -1, 0, 1561.81)" gradientUnits="userSpaceOnUse"><stop offset="0" stop-color="#eaedf2"/><stop offset="0.19" stop-color="#e5e9ee"/><stop offset="0.39" stop-color="#d8dce3"/><stop offset="0.61" stop-color="#c2c6d1"/><stop offset="0.84" stop-color="#a3a8b8"/><stop offset="1" stop-color="#878da1"/></linearGradient><linearGradient id="Degradado_sin_nombre_34" x1="218.75" y1="157.44" x2="69.8" y2="157.44" gradientUnits="userSpaceOnUse"><stop offset="0" stop-color="#eaedf2"/><stop offset="0.07" stop-color="#e1e5eb"/><stop offset="0.49" stop-color="#b1b5c3"/><stop offset="0.82" stop-color="#9298aa"/><stop offset="1" stop-color="#878da1"/></linearGradient></defs><path class="cls-1" d="M369.05,94.9v-49h8.05v49Z"/><path class="cls-1" d="M398.85,111.41q-7.55,0-11.57-2.72a8.66,8.66,0,0,1-4-7.61,8.32,8.32,0,0,1,2.15-5.79A11.36,11.36,0,0,1,391.54,92a6.62,6.62,0,0,1-2.6-2.1,5.08,5.08,0,0,1-1.09-3.17A5.52,5.52,0,0,1,389,83.2a12.55,12.55,0,0,1,3.52-2.86,10.11,10.11,0,0,1-4.68-4,12.15,12.15,0,0,1-1.76-6.59,13.05,13.05,0,0,1,1.71-6.86,11,11,0,0,1,5-4.33A19.22,19.22,0,0,1,400.76,57c.67,0,1.4,0,2.2.12s1.53.16,2.21.26a10.87,10.87,0,0,1,1.56.32h12.85v4.4l-6.31,1.17a10.79,10.79,0,0,1,1.45,2.9,11.52,11.52,0,0,1,.53,3.54,11.18,11.18,0,0,1-4,9.08q-4,3.3-10.95,3.3c-1.12,0-2.21-.13-3.26-.27a6.34,6.34,0,0,0-1.84,1.63,3.31,3.31,0,0,0-.64,2,1.83,1.83,0,0,0,.64,1.46,4.27,4.27,0,0,0,1.89.82,14.88,14.88,0,0,0,3.07.27h6.41q6.11,0,9.32,2.58t3.23,7.58a11,11,0,0,1-5.24,9.78Q408.68,111.41,398.85,111.41Zm.3-5.54a26,26,0,0,0,7-.8,9.47,9.47,0,0,0,4.26-2.3,4.94,4.94,0,0,0,1.44-3.54,3.88,3.88,0,0,0-.91-2.78,5,5,0,0,0-2.71-1.35,23.64,23.64,0,0,0-4.5-.36h-5.84a10.11,10.11,0,0,0-3.86.68,5.86,5.86,0,0,0-2.6,2,5.35,5.35,0,0,0-.92,3.15,4.36,4.36,0,0,0,2.27,3.93A12.5,12.5,0,0,0,399.15,105.87ZM400.69,77a6.53,6.53,0,0,0,5.14-1.9,7.8,7.8,0,0,0,1.67-5.35c0-2.51-.57-4.38-1.72-5.64a6.64,6.64,0,0,0-5.12-1.88,6.45,6.45,0,0,0-5.05,1.92,8.2,8.2,0,0,0-1.73,5.67,7.55,7.55,0,0,0,1.73,5.28A6.55,6.55,0,0,0,400.69,77Z"/><path class="cls-1" d="M433.28,94.9h-7.92V42.7h7.92Z"/><path class="cls-1" d="M458.35,57.06a16.74,16.74,0,0,1,8.52,2,13.75,13.75,0,0,1,5.47,5.8,19.68,19.68,0,0,1,1.91,9v4.23H449.46q.14,5.4,2.9,8.32a10.23,10.23,0,0,0,7.77,2.92,27.09,27.09,0,0,0,6.39-.69,34,34,0,0,0,5.85-2v6.41A25.42,25.42,0,0,1,466.7,95a34.35,34.35,0,0,1-6.91.6,20.74,20.74,0,0,1-9.61-2.13,15.24,15.24,0,0,1-6.47-6.35,21.46,21.46,0,0,1-2.34-10.5A24.1,24.1,0,0,1,443.49,66a15.25,15.25,0,0,1,5.94-6.65A17.08,17.08,0,0,1,458.35,57.06Zm0,5.94a8,8,0,0,0-6,2.41,11.46,11.46,0,0,0-2.7,7.08h16.91a13.45,13.45,0,0,0-.93-4.93,7.21,7.21,0,0,0-2.68-3.35A8,8,0,0,0,458.35,63Z"/><path class="cls-1" d="M507.14,84.3a10.42,10.42,0,0,1-1.78,6.18,10.82,10.82,0,0,1-5.18,3.8,23.65,23.65,0,0,1-8.34,1.29,35,35,0,0,1-6.69-.55,23.44,23.44,0,0,1-5.28-1.69V86.52a37.45,37.45,0,0,0,5.95,2.14,23.45,23.45,0,0,0,6.26.91q3.89,0,5.6-1.23a3.81,3.81,0,0,0,1.71-3.27,3.61,3.61,0,0,0-.69-2.16,7.69,7.69,0,0,0-2.55-2,53.57,53.57,0,0,0-5.45-2.46,45.21,45.21,0,0,1-5.94-2.82,10.22,10.22,0,0,1-3.65-3.41,9.5,9.5,0,0,1-1.24-5.11,8.41,8.41,0,0,1,3.9-7.5q3.92-2.57,10.35-2.57a29.08,29.08,0,0,1,6.46.69,31.41,31.41,0,0,1,6,2l-2.49,5.93A41.41,41.41,0,0,0,499,63.85a18.73,18.73,0,0,0-5.15-.72,9.33,9.33,0,0,0-4.64.94,3,3,0,0,0-1.6,2.69,3.26,3.26,0,0,0,.78,2.21,8.09,8.09,0,0,0,2.66,1.81q1.9.91,5.29,2.25a41.64,41.64,0,0,1,5.75,2.67,10.67,10.67,0,0,1,3.74,3.4A9.41,9.41,0,0,1,507.14,84.3Z"/><path class="cls-1" d="M518.66,43.54a5.14,5.14,0,0,1,3.13,1,3.85,3.85,0,0,1,1.33,3.35,3.88,3.88,0,0,1-1.33,3.34,5.51,5.51,0,0,1-6.3,0,4,4,0,0,1-1.3-3.34,3.92,3.92,0,0,1,1.3-3.35A5.09,5.09,0,0,1,518.66,43.54Zm3.89,14.23V94.9h-7.89V57.77Z"/><path class="cls-1" d="M547.42,57.06q7,0,10.65,3.12t3.61,9.73v25h-5.61l-1.51-5.26h-.27A19,19,0,0,1,551,93a11.77,11.77,0,0,1-3.87,2,18.88,18.88,0,0,1-5.36.65,13.76,13.76,0,0,1-5.93-1.22,9.34,9.34,0,0,1-4.13-3.74,12.19,12.19,0,0,1-1.51-6.37q0-5.74,4.28-8.63t12.93-3.18l6.44-.24V70.25c0-2.58-.6-4.41-1.79-5.51a7.24,7.24,0,0,0-5.05-1.64,18.11,18.11,0,0,0-5.4.81,37.06,37.06,0,0,0-5.1,2L534,60.32A27.79,27.79,0,0,1,540.19,58,28.2,28.2,0,0,1,547.42,57.06Zm6.44,20.1-4.8.16q-5.91.21-8.28,2a5.88,5.88,0,0,0-2.39,5,4.72,4.72,0,0,0,1.65,4,6.92,6.92,0,0,0,4.33,1.26,10.05,10.05,0,0,0,6.79-2.33c1.8-1.56,2.7-3.84,2.7-6.86Z"/><path class="cls-1" d="M601.12,95.57a13.15,13.15,0,0,1-10.66-4.84q-4-4.86-4-14.31T590.53,62a13.29,13.29,0,0,1,10.75-4.9,14.43,14.43,0,0,1,4.93.76,11.65,11.65,0,0,1,3.64,2,13.7,13.7,0,0,1,2.6,2.85h.37c-.11-.7-.24-1.7-.38-3a31.86,31.86,0,0,1-.22-3.63V42.7h7.92V94.9H614l-1.41-5.06h-.33a12.59,12.59,0,0,1-2.53,2.9,11.89,11.89,0,0,1-3.63,2.06A14.12,14.12,0,0,1,601.12,95.57Zm2.21-6.4c3.38,0,5.76-1,7.14-2.92s2.11-4.87,2.15-8.76v-1q0-6.24-2-9.58t-7.35-3.33A7.25,7.25,0,0,0,596.77,67q-2.24,3.43-2.23,9.57c0,4.1.74,7.22,2.23,9.38A7.45,7.45,0,0,0,603.33,89.17Z"/><path class="cls-1" d="M645.24,57.06a16.74,16.74,0,0,1,8.52,2,13.75,13.75,0,0,1,5.47,5.8,19.68,19.68,0,0,1,1.91,9v4.23H636.35q.14,5.4,2.9,8.32A10.23,10.23,0,0,0,647,89.37a27.09,27.09,0,0,0,6.39-.69,34,34,0,0,0,5.85-2v6.41A25.42,25.42,0,0,1,653.59,95a34.35,34.35,0,0,1-6.91.6,20.74,20.74,0,0,1-9.61-2.13,15.24,15.24,0,0,1-6.47-6.35,21.46,21.46,0,0,1-2.34-10.5A24.1,24.1,0,0,1,630.38,66a15.25,15.25,0,0,1,5.94-6.65A17.08,17.08,0,0,1,645.24,57.06Zm0,5.94a8,8,0,0,0-6,2.41,11.46,11.46,0,0,0-2.7,7.08h16.91a13.24,13.24,0,0,0-.93-4.93,7.21,7.21,0,0,0-2.68-3.35A8,8,0,0,0,645.24,63Z"/><path class="cls-1" d="M707.66,52a14.85,14.85,0,0,0-6.29,1.27,12.72,12.72,0,0,0-4.68,3.67,17,17,0,0,0-2.92,5.81,27,27,0,0,0-1,7.66,26.75,26.75,0,0,0,1.62,9.82,13,13,0,0,0,4.89,6.3,14.64,14.64,0,0,0,8.32,2.2,30.51,30.51,0,0,0,6.08-.6,54.7,54.7,0,0,0,6.1-1.65v6.85a31.52,31.52,0,0,1-6,1.71,41.83,41.83,0,0,1-7,.53q-7.52,0-12.47-3.12a19,19,0,0,1-7.38-8.78,33.54,33.54,0,0,1-2.43-13.29A32.38,32.38,0,0,1,686,60.18a23.12,23.12,0,0,1,4.5-8,19.68,19.68,0,0,1,7.3-5.2,25.39,25.39,0,0,1,9.94-1.83A32.87,32.87,0,0,1,715,46a30,30,0,0,1,6.62,2.34L718.76,55a40.1,40.1,0,0,0-5.33-2.08A19.25,19.25,0,0,0,707.66,52Z"/><path class="cls-1" d="M747.36,57.06c.62,0,1.31,0,2,.1a18.48,18.48,0,0,1,1.92.27l-.74,7.38a10.76,10.76,0,0,0-1.73-.3,17.93,17.93,0,0,0-1.83-.1,11.71,11.71,0,0,0-4,.69,9.53,9.53,0,0,0-5.71,5.55,12.86,12.86,0,0,0-.84,4.83V94.9h-7.91V57.77h6.17l1.07,6.54h.37a16.57,16.57,0,0,1,2.75-3.62,13.13,13.13,0,0,1,3.78-2.64A11,11,0,0,1,747.36,57.06Z"/><path class="cls-1" d="M761.22,43.54a5.15,5.15,0,0,1,3.14,1,3.88,3.88,0,0,1,1.32,3.35,3.91,3.91,0,0,1-1.32,3.34,5.52,5.52,0,0,1-6.31,0,4,4,0,0,1-1.29-3.34,3.92,3.92,0,0,1,1.29-3.35A5.11,5.11,0,0,1,761.22,43.54Zm3.89,14.23V94.9h-7.88V57.77Z"/><path class="cls-1" d="M800.38,84.3a10.48,10.48,0,0,1-1.77,6.18,10.9,10.9,0,0,1-5.19,3.8,23.63,23.63,0,0,1-8.33,1.29,35,35,0,0,1-6.7-.55,23.77,23.77,0,0,1-5.28-1.69V86.52a37.81,37.81,0,0,0,5.95,2.14,23.51,23.51,0,0,0,6.26.91c2.6,0,4.46-.41,5.6-1.23a3.81,3.81,0,0,0,1.71-3.27,3.6,3.6,0,0,0-.68-2.16,7.69,7.69,0,0,0-2.55-2A53.57,53.57,0,0,0,784,78.47,45.21,45.21,0,0,1,778,75.65a10.34,10.34,0,0,1-3.66-3.41,9.5,9.5,0,0,1-1.24-5.11,8.4,8.4,0,0,1,3.91-7.5q3.9-2.57,10.35-2.57a29.15,29.15,0,0,1,6.46.69,31.32,31.32,0,0,1,5.95,2l-2.48,5.93a42,42,0,0,0-5-1.83,18.78,18.78,0,0,0-5.15-.72,9.37,9.37,0,0,0-4.65.94,3,3,0,0,0-1.59,2.69,3.31,3.31,0,0,0,.77,2.21,8.15,8.15,0,0,0,2.67,1.81q1.89.91,5.28,2.25a41.81,41.81,0,0,1,5.76,2.67,10.76,10.76,0,0,1,3.74,3.4A9.41,9.41,0,0,1,800.38,84.3Z"/><path class="cls-1" d="M821.73,89.2a16.33,16.33,0,0,0,3-.28,21.62,21.62,0,0,0,2.75-.69v6a16.61,16.61,0,0,1-3.38,1,22.64,22.64,0,0,1-4.33.4,14.62,14.62,0,0,1-5.67-1,8.21,8.21,0,0,1-4-3.64,14.42,14.42,0,0,1-1.48-7.15v-20h-5.06V60.25l5.43-2.79,2.58-8h5v8.26h10.63v6H816.6V83.63A5.6,5.6,0,0,0,818,87.82,5.09,5.09,0,0,0,821.73,89.2Z"/><path class="cls-1" d="M867,76.25a25.85,25.85,0,0,1-1.21,8.22,16.37,16.37,0,0,1-3.52,6,15.22,15.22,0,0,1-5.57,3.76,19.81,19.81,0,0,1-7.35,1.29,18.53,18.53,0,0,1-7-1.29,15.54,15.54,0,0,1-5.52-3.76,16.8,16.8,0,0,1-3.6-6,24.46,24.46,0,0,1-1.28-8.22,23.24,23.24,0,0,1,2.13-10.42,15,15,0,0,1,6.09-6.52,18.77,18.77,0,0,1,9.43-2.25,17.85,17.85,0,0,1,9,2.25,15.49,15.49,0,0,1,6.14,6.54A22.41,22.41,0,0,1,867,76.25Zm-26.94,0a21.55,21.55,0,0,0,1,7,8.82,8.82,0,0,0,16.86,0,22.15,22.15,0,0,0,1-7,21.63,21.63,0,0,0-1-6.89A8.58,8.58,0,0,0,854.85,65a9,9,0,0,0-5.4-1.49q-4.89,0-7.14,3.28T840.06,76.25Z"/><path class="cls-1" d="M369.05,226v-89.4H393.2v69.9h34.43V226Z"/><path class="cls-1" d="M470.34,155.48q13.14,0,20.54,6.51t7.4,18.56V226H481.71l-4.58-9.17h-.49a33.12,33.12,0,0,1-6,6,20.8,20.8,0,0,1-7.06,3.37,38.07,38.07,0,0,1-9.72,1.07,23.23,23.23,0,0,1-10.76-2.45,17.76,17.76,0,0,1-7.52-7.4q-2.76-5-2.76-12.53,0-11.13,7.71-16.51t22.32-6.06l11.55-.36v-1q0-4.65-2.29-6.61a9.17,9.17,0,0,0-6.14-1.95,33.62,33.62,0,0,0-9.15,1.43,78,78,0,0,0-10.12,3.7l-6.91-15.77a54.22,54.22,0,0,1,13.58-4.65A83.08,83.08,0,0,1,470.34,155.48ZM474.5,195l-5.51.25q-6.6.24-9.26,2.29a7,7,0,0,0-2.66,5.84c0,2.36.63,4.11,1.9,5.23a7.26,7.26,0,0,0,5,1.68,10.81,10.81,0,0,0,7.43-2.75,9.14,9.14,0,0,0,3.09-7.16Z"/><path class="cls-1" d="M571.41,136.58q17,0,25.47,7.4t8.47,21a39.53,39.53,0,0,1-1.74,11.74,26.73,26.73,0,0,1-5.69,10,27.1,27.1,0,0,1-10.45,7,44.06,44.06,0,0,1-16.06,2.57h-6.78V226H540.47v-89.4Zm-.55,19.51h-6.23v20.55h4.77a15.67,15.67,0,0,0,5.81-1.07,9.22,9.22,0,0,0,4.31-3.49,11.41,11.41,0,0,0,1.62-6.45,9.63,9.63,0,0,0-2.51-6.88Q576.13,156.09,570.86,156.09Z"/><path class="cls-1" d="M656,155.48a32.78,32.78,0,0,1,4.1.27c1.42.19,2.48.34,3.18.46l-2.14,22.57a21.24,21.24,0,0,0-3-.52A47.46,47.46,0,0,0,653,178a30.22,30.22,0,0,0-4.83.43,14,14,0,0,0-4.86,1.8,10.34,10.34,0,0,0-3.76,4.16,16.13,16.13,0,0,0-1.47,7.49V226h-23.9V156.7H632l3.73,11.07h1.16a25.25,25.25,0,0,1,4.86-6.21,24,24,0,0,1,6.67-4.43A18.47,18.47,0,0,1,656,155.48Z"/><path class="cls-1" d="M700.13,155.48A40,40,0,0,1,717.55,159a25.25,25.25,0,0,1,11.32,10.55q4,7,4,17.61v10.64H690.1a12.63,12.63,0,0,0,4.07,8.93q3.75,3.48,11.09,3.49a51.37,51.37,0,0,0,11.9-1.29,57.93,57.93,0,0,0,11.16-4v17.18a41.55,41.55,0,0,1-11,3.85,75.69,75.69,0,0,1-15,1.23,45.06,45.06,0,0,1-18.71-3.73,28.68,28.68,0,0,1-13-11.56Q666,204.09,666,191.8q0-12.48,4.28-20.51a27.29,27.29,0,0,1,12-11.93A39.31,39.31,0,0,1,700.13,155.48Zm.85,16.26a9.93,9.93,0,0,0-7.06,2.67c-1.89,1.77-3,4.55-3.33,8.34h20.54a13.61,13.61,0,0,0-1.22-5.56,9.41,9.41,0,0,0-3.39-4A9.88,9.88,0,0,0,701,171.74Z"/><path class="cls-1" d="M793.84,204.7a22.85,22.85,0,0,1-2.94,11.68,19.55,19.55,0,0,1-9.39,8q-6.45,2.88-17,2.88a98.74,98.74,0,0,1-13.23-.8,54.11,54.11,0,0,1-11.84-3.06V204.21a59.08,59.08,0,0,0,13.33,4.32,60.47,60.47,0,0,0,10.71,1.31,14.61,14.61,0,0,0,5.9-.89,2.83,2.83,0,0,0,1.86-2.66A3.3,3.3,0,0,0,770,203.7a19.3,19.3,0,0,0-4.47-2.48q-3.21-1.41-9-3.79a45.62,45.62,0,0,1-9.57-5.2,18.11,18.11,0,0,1-5.71-6.73,21.82,21.82,0,0,1-1.9-9.6q0-10.14,7.83-15.28t20.73-5.14a53.54,53.54,0,0,1,12.9,1.5,76.08,76.08,0,0,1,12.54,4.37l-6.55,15.41A67.68,67.68,0,0,0,776.41,173a34.37,34.37,0,0,0-8.38-1.41,10.27,10.27,0,0,0-4.34.74,2.31,2.31,0,0,0-1.53,2.14,3,3,0,0,0,1.07,2.26A15.47,15.47,0,0,0,767.3,179q3,1.29,8.74,3.61a49.4,49.4,0,0,1,10,5.23,17.56,17.56,0,0,1,5.87,6.75A23.21,23.21,0,0,1,793.84,204.7Z"/><path class="cls-1" d="M834.28,155.48A40,40,0,0,1,851.71,159,25.28,25.28,0,0,1,863,169.54q4,7,4,17.61v10.64H824.25a12.67,12.67,0,0,0,4.07,8.93q3.76,3.48,11.1,3.49a51.22,51.22,0,0,0,11.89-1.29,57.69,57.69,0,0,0,11.16-4v17.18A41.36,41.36,0,0,1,851.53,226a75.76,75.76,0,0,1-15,1.23,45.14,45.14,0,0,1-18.72-3.73,28.71,28.71,0,0,1-13-11.56q-4.74-7.83-4.74-20.12,0-12.48,4.28-20.51a27.31,27.31,0,0,1,12-11.93A39.24,39.24,0,0,1,834.28,155.48Zm.86,16.26a9.91,9.91,0,0,0-7.06,2.67q-2.85,2.66-3.34,8.34h20.55a13.77,13.77,0,0,0-1.22-5.56,9.43,9.43,0,0,0-3.4-4A9.84,9.84,0,0,0,835.14,171.74Z"/><path class="cls-1" d="M919.86,155.48q10.7,0,17.49,6.05t6.78,19.39V226h-23.9V188.19q0-6.9-2-10.42a6.79,6.79,0,0,0-6.39-3.52q-6.79,0-9.11,5.53t-2.33,15.87V226H876.5V156.7h18l3.24,9.17h.92a23.12,23.12,0,0,1,5.26-5.62,22.48,22.48,0,0,1,7-3.55A30.29,30.29,0,0,1,919.86,155.48Z"/><path class="cls-1" d="M988,227.21a41.64,41.64,0,0,1-18.29-3.76,26.56,26.56,0,0,1-12-11.62q-4.26-7.86-4.25-20.15,0-12.6,4.74-20.61a28.73,28.73,0,0,1,13-11.8,44.29,44.29,0,0,1,18.71-3.79,50.32,50.32,0,0,1,22.69,5.26l-7,17.67a74.51,74.51,0,0,0-8-3,26.29,26.29,0,0,0-7.68-1.13,10.92,10.92,0,0,0-6.36,1.9,12.22,12.22,0,0,0-4.28,5.71,26.34,26.34,0,0,0-1.53,9.7,25.06,25.06,0,0,0,1.56,9.66,10.9,10.9,0,0,0,4.34,5.32,12.31,12.31,0,0,0,6.39,1.65,34.51,34.51,0,0,0,10.37-1.62,43.06,43.06,0,0,0,9.81-4.5v19a37.24,37.24,0,0,1-9.66,4.47A42.9,42.9,0,0,1,988,227.21Z"/><path class="cls-1" d="M1032.06,128.82a18,18,0,0,1,9,2.14q3.82,2.14,3.82,8.5,0,6.18-3.82,8.34a17.8,17.8,0,0,1-9,2.18,17.42,17.42,0,0,1-9-2.18q-3.69-2.16-3.7-8.34,0-6.36,3.7-8.5A17.61,17.61,0,0,1,1032.06,128.82Zm11.87,27.88V226H1020V156.7Z"/><path class="cls-1" d="M1090.43,155.48q13.14,0,20.54,6.51t7.4,18.56V226H1101.8l-4.59-9.17h-.49a32.77,32.77,0,0,1-6,6,20.89,20.89,0,0,1-7.06,3.37,38.07,38.07,0,0,1-9.72,1.07,23.27,23.27,0,0,1-10.77-2.45,17.81,17.81,0,0,1-7.52-7.4q-2.75-5-2.75-12.53,0-11.13,7.71-16.51t22.32-6.06l11.55-.36v-1q0-4.65-2.29-6.61a9.18,9.18,0,0,0-6.15-1.95,33.55,33.55,0,0,0-9.14,1.43,78,78,0,0,0-10.12,3.7l-6.91-15.77a54.22,54.22,0,0,1,13.58-4.65A83.08,83.08,0,0,1,1090.43,155.48Zm4.15,39.56-5.5.25q-6.6.24-9.26,2.29a6.92,6.92,0,0,0-2.66,5.84c0,2.36.63,4.11,1.89,5.23a7.31,7.31,0,0,0,5,1.68,10.81,10.81,0,0,0,7.43-2.75,9.17,9.17,0,0,0,3.08-7.16Z"/><path class="cls-1" d="M1180.68,227.21q-10.71,0-17.61-9.11t-6.91-26.67q0-17.73,7.09-26.84a22.22,22.22,0,0,1,18.35-9.11,21.74,21.74,0,0,1,8,1.34,18.91,18.91,0,0,1,5.84,3.64,26.49,26.49,0,0,1,4.31,5.17h.49q-.43-2.62-.8-7.25c-.24-3.07-.37-6.08-.37-9V130.84h24.1V226h-18l-5.14-8.74h-.92a22.22,22.22,0,0,1-4.12,5,18.65,18.65,0,0,1-6,3.61A23,23,0,0,1,1180.68,227.21Zm9.78-18.9q5.74,0,8.1-3.64t2.54-11.1v-1.89q0-8.19-2.29-12.57t-8.59-4.37c-2.86,0-5.22,1.39-7.1,4.16s-2.81,7.07-2.81,12.9,1,9.94,2.84,12.57A8.67,8.67,0,0,0,1190.46,208.31Z"/><path class="cls-1" d="M1266.86,155.48a40,40,0,0,1,17.43,3.51,25.28,25.28,0,0,1,11.31,10.55q4,7,4,17.61v10.64h-42.74a12.62,12.62,0,0,0,4.06,8.93q3.76,3.48,11.1,3.49a51.22,51.22,0,0,0,11.89-1.29,57.69,57.69,0,0,0,11.16-4v17.18a41.36,41.36,0,0,1-10.94,3.85,75.76,75.76,0,0,1-15,1.23,45.06,45.06,0,0,1-18.71-3.73,28.68,28.68,0,0,1-13-11.56q-4.74-7.83-4.74-20.12,0-12.48,4.28-20.51a27.36,27.36,0,0,1,12-11.93A39.27,39.27,0,0,1,1266.86,155.48Zm.86,16.26a9.91,9.91,0,0,0-7.06,2.67q-2.85,2.66-3.34,8.34h20.55a13.77,13.77,0,0,0-1.22-5.56,9.43,9.43,0,0,0-3.4-4A9.82,9.82,0,0,0,1267.72,171.74Z"/><path class="cls-1" d="M1333,226h-23.9V130.84H1333Z"/><path class="cls-1" d="M427.51,324.07a27.76,27.76,0,0,1-3.67,13.79,26.89,26.89,0,0,1-11.41,10.54q-7.73,4-20,4a91,91,0,0,1-10.73-.55,47.75,47.75,0,0,1-8.59-1.8,65.2,65.2,0,0,1-8.26-3.28V325.29a73.89,73.89,0,0,0,14.68,5.59A53.34,53.34,0,0,0,393,332.81a17.15,17.15,0,0,0,5.9-.86,7.12,7.12,0,0,0,3.39-2.35,5.65,5.65,0,0,0,1.1-3.46,5.37,5.37,0,0,0-1.62-3.94,20.26,20.26,0,0,0-5.16-3.39c-2.37-1.19-5.49-2.65-9.36-4.41a91.4,91.4,0,0,1-9-4.77A30.76,30.76,0,0,1,371.4,304a22.24,22.24,0,0,1-4.37-7.37,29.22,29.22,0,0,1-1.53-10q0-8.61,4.25-14.46a25.6,25.6,0,0,1,11.86-8.77,48.65,48.65,0,0,1,17.59-2.94,58.7,58.7,0,0,1,15.74,2A88.5,88.5,0,0,1,427.51,267l-7.4,18.65a78.21,78.21,0,0,0-11.31-4.19,38.89,38.89,0,0,0-10.34-1.56,14.43,14.43,0,0,0-5.11.77,6.34,6.34,0,0,0-2.93,2.05,4.8,4.8,0,0,0-.95,2.93,5.19,5.19,0,0,0,1.62,3.73,21.3,21.3,0,0,0,5.44,3.58c2.55,1.28,6,2.95,10.43,5a60.46,60.46,0,0,1,11.13,6.33,23.18,23.18,0,0,1,7,8.14A25.57,25.57,0,0,1,427.51,324.07Z"/><path class="cls-1" d="M467.1,280.71a40,40,0,0,1,17.43,3.52,25.17,25.17,0,0,1,11.31,10.55q4,7,4,17.61V323H457.07a12.62,12.62,0,0,0,4.07,8.92q3.75,3.49,11.09,3.49a51.94,51.94,0,0,0,11.9-1.28,57.76,57.76,0,0,0,11.16-4v17.18a41.44,41.44,0,0,1-11,3.86,76.55,76.55,0,0,1-15,1.22,44.9,44.9,0,0,1-18.71-3.73,28.73,28.73,0,0,1-13-11.56q-4.72-7.83-4.73-20.12,0-12.46,4.28-20.51a27.34,27.34,0,0,1,12-11.93A39.44,39.44,0,0,1,467.1,280.71ZM468,297a9.92,9.92,0,0,0-7.06,2.66c-1.89,1.77-3,4.55-3.33,8.34H478.1a13.64,13.64,0,0,0-1.22-5.56,9.34,9.34,0,0,0-3.39-4A9.93,9.93,0,0,0,468,297Z"/><path class="cls-1" d="M552.67,280.71q10.71,0,17.49,6.06T577,306.15v45.07H553V313.43q0-6.92-2-10.43a6.79,6.79,0,0,0-6.39-3.52q-6.78,0-9.11,5.54t-2.32,15.87v30.33H509.32V281.93h18l3.24,9.18h.92a23,23,0,0,1,5.26-5.63,22.37,22.37,0,0,1,7-3.55A30.22,30.22,0,0,1,552.67,280.71Zm-35.58-5.13a44.14,44.14,0,0,1,1.55-9.73,19.79,19.79,0,0,1,3.12-6.45,11.49,11.49,0,0,1,4.65-3.61,15.62,15.62,0,0,1,11-.24q2.63.88,5.32,2.05t5.29,2a15.4,15.4,0,0,0,5,.88,4,4,0,0,0,2.42-1q1.31-1,1.92-5h11.19q-.8,11.25-4.92,16.08a12.81,12.81,0,0,1-10.12,4.83,18.14,18.14,0,0,1-5.53-.88c-1.86-.6-3.68-1.28-5.48-2.05s-3.52-1.46-5.19-2a14.59,14.59,0,0,0-4.84-.89,3.86,3.86,0,0,0-2.38,1q-1.23,1-2,5Z"/><path class="cls-1" d="M655.37,316.42A46,46,0,0,1,653,331.83a30.18,30.18,0,0,1-6.91,11.31,29.48,29.48,0,0,1-11,6.95,42.1,42.1,0,0,1-14.49,2.35,39.13,39.13,0,0,1-13.79-2.35,30.29,30.29,0,0,1-18.1-18.26,43.49,43.49,0,0,1-2.54-15.41q0-11.49,4.19-19.44a28.37,28.37,0,0,1,12-12.11q7.79-4.15,18.62-4.16a37,37,0,0,1,17.73,4.16A30,30,0,0,1,650.94,297Q655.37,304.93,655.37,316.42Zm-44.88,0a40.66,40.66,0,0,0,1,10,12.29,12.29,0,0,0,3.33,6.18,8.57,8.57,0,0,0,6,2.1,8.22,8.22,0,0,0,5.93-2.1,12.51,12.51,0,0,0,3.21-6.18,41.81,41.81,0,0,0,1-10,40.64,40.64,0,0,0-1-9.9,11.75,11.75,0,0,0-3.24-6,8.66,8.66,0,0,0-6-2A8.24,8.24,0,0,0,612.9,303Q610.48,307.56,610.49,316.42Z"/><path class="cls-1" d="M706.82,280.71a31.05,31.05,0,0,1,4.1.28q2.15.27,3.18.45L712,304a22.31,22.31,0,0,0-3-.52,47.73,47.73,0,0,0-5.14-.22,30,30,0,0,0-4.83.43,13.85,13.85,0,0,0-4.86,1.81,10.14,10.14,0,0,0-3.76,4.16,16.1,16.1,0,0,0-1.47,7.49v34.06H665V281.93h17.79L686.52,293h1.17a25,25,0,0,1,4.86-6.2,23.79,23.79,0,0,1,6.66-4.44A18.54,18.54,0,0,1,706.82,280.71Z"/><path class="cls-1" d="M742.65,379.28a56,56,0,0,1-7.18-.4c-2.06-.26-3.84-.56-5.35-.88V359.23c1.3.24,2.69.52,4.16.82a23,23,0,0,0,4.77.46,11.24,11.24,0,0,0,6.75-1.77,9.53,9.53,0,0,0,3.4-5.32,34.08,34.08,0,0,0,1-8.87V261.82h24.27v80.65q0,13.45-4,21.53a25.23,25.23,0,0,1-11.2,11.68A36.36,36.36,0,0,1,742.65,379.28Z"/><path class="cls-1" d="M819.55,280.71A39.87,39.87,0,0,1,837,284.23a25.14,25.14,0,0,1,11.32,10.55q4,7,4,17.61V323H809.52a12.65,12.65,0,0,0,4.06,8.92q3.76,3.49,11.1,3.49a51.94,51.94,0,0,0,11.9-1.28,58.23,58.23,0,0,0,11.16-4v17.18a41.57,41.57,0,0,1-11,3.86,76.55,76.55,0,0,1-15,1.22,44.9,44.9,0,0,1-18.71-3.73,28.68,28.68,0,0,1-13-11.56q-4.74-7.83-4.74-20.12,0-12.46,4.28-20.51a27.36,27.36,0,0,1,12-11.93A39.44,39.44,0,0,1,819.55,280.71ZM820.4,297a9.9,9.9,0,0,0-7.06,2.66Q810.49,302.3,810,308h20.54a13.81,13.81,0,0,0-1.22-5.56,9.48,9.48,0,0,0-3.39-4A10,10,0,0,0,820.4,297Z"/><path class="cls-1" d="M913.26,329.93a22.91,22.91,0,0,1-2.94,11.69,19.59,19.59,0,0,1-9.39,7.94q-6.45,2.88-17,2.88a98.74,98.74,0,0,1-13.23-.8,54.07,54.07,0,0,1-11.84-3.05V329.45a65,65,0,0,0,24,5.62,14.66,14.66,0,0,0,5.91-.88,2.85,2.85,0,0,0,1.86-2.66,3.31,3.31,0,0,0-1.25-2.6,19.3,19.3,0,0,0-4.47-2.48q-3.21-1.41-9-3.79a45.62,45.62,0,0,1-9.57-5.2,18.16,18.16,0,0,1-5.71-6.72,21.82,21.82,0,0,1-1.9-9.6q0-10.15,7.83-15.29t20.73-5.14a53.54,53.54,0,0,1,12.9,1.5,77,77,0,0,1,12.54,4.37L906.22,302a67.68,67.68,0,0,0-10.39-3.73,34.37,34.37,0,0,0-8.38-1.41,10.24,10.24,0,0,0-4.34.74,2.31,2.31,0,0,0-1.53,2.14,3,3,0,0,0,1.07,2.26,15.47,15.47,0,0,0,4.07,2.26q3,1.29,8.74,3.61a49.91,49.91,0,0,1,10,5.23,17.74,17.74,0,0,1,5.87,6.76A23.16,23.16,0,0,1,913.26,329.93Z"/><path class="cls-1" d="M989.9,281.93v69.29h-18l-3-8.63h-1.41a18,18,0,0,1-5.41,5.66,23.3,23.3,0,0,1-7.25,3.18,33.53,33.53,0,0,1-8.25,1,28,28,0,0,1-12.26-2.63,19.65,19.65,0,0,1-8.69-8.26q-3.21-5.62-3.21-14.49V281.93H946.3v37.86q0,6.72,1.93,10.24a6.65,6.65,0,0,0,6.33,3.51c3,0,5.35-.81,7-2.44a13.78,13.78,0,0,0,3.45-7.22,58.25,58.25,0,0,0,1-11.62V281.93ZM986,255.27v1.29q-2.21,1.77-5.63,4.31t-7.24,5.26q-3.82,2.72-7.4,5.16t-6.15,4h-15.9v-1.77q2.15-2.32,5.14-5.54t6-6.57a75.87,75.87,0,0,0,5-6.18Z"/><path class="cls-1" d="M1053.89,329.93a23,23,0,0,1-2.93,11.69,19.59,19.59,0,0,1-9.39,7.94q-6.45,2.88-17,2.88a99,99,0,0,1-13.24-.8,54.14,54.14,0,0,1-11.83-3.05V329.45a65,65,0,0,0,24,5.62,14.61,14.61,0,0,0,5.9-.88,2.85,2.85,0,0,0,1.87-2.66,3.29,3.29,0,0,0-1.26-2.6,19,19,0,0,0-4.46-2.48q-3.21-1.41-9-3.79a45.62,45.62,0,0,1-9.57-5.2,18.19,18.19,0,0,1-5.72-6.72,22,22,0,0,1-1.89-9.6q0-10.15,7.83-15.29t20.73-5.14a53.54,53.54,0,0,1,12.9,1.5,76.92,76.92,0,0,1,12.53,4.37L1046.86,302a67.41,67.41,0,0,0-10.4-3.73,34.23,34.23,0,0,0-8.37-1.41,10.21,10.21,0,0,0-4.34.74,2.31,2.31,0,0,0-1.53,2.14,3,3,0,0,0,1.07,2.26,15.54,15.54,0,0,0,4.06,2.26q3,1.29,8.75,3.61a50.18,50.18,0,0,1,10,5.23,17.74,17.74,0,0,1,5.87,6.76A23.17,23.17,0,0,1,1053.89,329.93Z"/><rect class="cls-2" x="290.92" y="24.24" width="11.24" height="364.34" rx="4.9"/><path class="cls-3" d="M121.12,256.54l-.15.21c-.55.7-1.12,1.39-1.71,2.09s-1.26,1.49-1.91,2.24-1.27,1.44-1.93,2.16c-2.53,2.75-5.25,5.47-8.11,8.12l-.88.82-.54.49c-.47.44-1,.87-1.45,1.3l-1.53,1.35c-.17.15-.34.3-.52.44l-.94.81c-1.12,1-2.27,1.91-3.44,2.84l-1.44,1.15c-.49.38-1,.76-1.46,1.14s-1,.77-1.45,1.12c-.92.7-1.84,1.39-2.77,2.07l-.52.38-1.12.81c-.92.66-1.84,1.3-2.76,1.93l-.54.38-1.12.77c-2.38,1.59-4.74,3.08-7.06,4.47l-.08.05-.07,0-.08,0a67,67,0,0,0-27.29,32.67,109.59,109.59,0,0,1-19.19-15.7c-.46-.4-.91-.83-1.36-1.26q-3.32-3.54-6.32-7.36l-.05-.06A109.75,109.75,0,0,1,2.7,210.22c0-.18.08-.34.11-.52v0a109.84,109.84,0,0,1,46.77-66.91,47.74,47.74,0,0,0-3.27,5,46.4,46.4,0,0,0-4.26,9.93c-.36,1.18-.67,2.38-.94,3.61q-.09.36-.15.72c-.05.24-.09.44-.13.66-.13.64-.23,1.28-.33,1.93l-.12.93c0,.2-.05.41-.07.61a49.09,49.09,0,0,0-.3,5.42c0,1.4.05,2.76.17,4.12a47.3,47.3,0,0,0,19.54,34.53,53,53,0,0,0,4.83,3.11,54.13,54.13,0,0,0,5.24,2.58A51.44,51.44,0,0,0,77,218.4L86,221.21c6.69,2,14.77,7.09,15.22,7.4C113.25,236.77,119.19,245.39,121.12,256.54Z"/><path class="cls-4" d="M95.51,181.62a77,77,0,0,1-8.07,10c-.11.1-1.64,1.53-1.67,1.58l0,0c-.53.51-1,1-1.56,1.58L84,195A76.46,76.46,0,0,0,69.8,215.91a50.31,50.31,0,0,1-10.08-5.69A47.32,47.32,0,0,1,40.18,175.7c-.12-1.36-.17-2.73-.17-4.12a49.09,49.09,0,0,1,.3-5.42c0-.2,0-.41.07-.61l.12-.93c.1-.65.2-1.29.33-1.93,0-.22.08-.44.13-.66s.09-.49.15-.72c.27-1.23.58-2.43.94-3.62a29.87,29.87,0,0,0,53.47,23.94Z"/><path class="cls-4" d="M228.06,227v.57a145.09,145.09,0,0,1-13.54,59.87,146.08,146.08,0,0,1-56.82,63.25h0a142.81,142.81,0,0,1-38.73,16.15s-4.16,1.05-6.13,1.58c-2.49.66-4.93,1.43-7.33,2.29-1.15.38-2.29.81-3.41,1.28l-.26.1a57.35,57.35,0,0,0-20.73,14.78c-.85.94-1.65,1.91-2.43,2.9a57.18,57.18,0,0,0-10.71,22.46c-.17-.2-.33-.39-.49-.6A96,96,0,0,1,45.7,352v-3c0-.72.06-1.45.1-2.17a66.79,66.79,0,0,1,31.74-53.08l.08-.05.07,0,.08,0c2.32-1.39,4.68-2.89,7.06-4.48.38-.24.76-.5,1.12-.76l.54-.38c.93-.63,1.84-1.28,2.76-1.94.38-.26.76-.53,1.12-.8l.52-.39c.93-.68,1.86-1.37,2.77-2.07.49-.38,1-.76,1.45-1.11s1-.77,1.46-1.15L98,279.38c1.15-.93,2.29-1.87,3.44-2.84.32-.26.63-.53.94-.8l.52-.45,1.53-1.34c.49-.44,1-.87,1.45-1.31.18-.16.38-.32.54-.49s.59-.54.88-.81c2.86-2.68,5.58-5.37,8.11-8.13.66-.72,1.31-1.43,1.93-2.15s1.3-1.5,1.91-2.25,1.15-1.39,1.71-2.09l.15-.2a145.57,145.57,0,0,0,9.26-13.21,141.93,141.93,0,0,0,7.48-13.57A7.95,7.95,0,0,1,153,233.18a7.71,7.71,0,0,1-.08,1.07l-.15.81a143,143,0,0,1-5.23,19.52,117,117,0,0,1-5.86,13.56c-3.26,6.49-7,13-10.26,18.24a24.73,24.73,0,0,0-1.2,2.42c-.06.15-.12.3-.17.46a18.28,18.28,0,0,0,17,25c6.39,0,12.36-3,16.87-6.56a145.87,145.87,0,0,0,31.51-37.12A144.64,144.64,0,0,0,212.74,226c0-.23.1-.45.14-.69a7.7,7.7,0,0,1,5.89-5.73,7.83,7.83,0,0,1,1.6-.17A7.7,7.7,0,0,1,228.06,227Z"/><path class="cls-5" d="M218.75,219.59a7.7,7.7,0,0,0-5.89,5.72c0,.24-.09.46-.13.69a144.79,144.79,0,0,1-17.34,44.65,145.87,145.87,0,0,1-31.51,37.12c-4.51,3.59-10.48,6.56-16.87,6.56a18.28,18.28,0,0,1-17-25.05c0-.16.11-.31.17-.46.36-.82.76-1.63,1.2-2.41,3.27-5.25,7-11.74,10.26-18.25a115.14,115.14,0,0,0,5.86-13.55,140.51,140.51,0,0,0,5.23-19.52c0-.28.1-.54.16-.82a7.59,7.59,0,0,0,.07-1.07,7.95,7.95,0,0,0-15.11-3.43,144.31,144.31,0,0,1-7.47,13.57,144,144,0,0,1-9.26,13.2c-1.93-11.15-7.87-19.77-19.94-27.93-.45-.31-8.52-5.35-15.21-7.4L77,218.4a51.56,51.56,0,0,1-7.24-2.49A76.64,76.64,0,0,1,84,195a.86.86,0,0,1,.13-.14c.51-.53,1-1.06,1.56-1.58l0,0s1.56-1.48,1.67-1.58a77,77,0,0,0,8.07-10s0,0,0,0c.44-.65.87-1.31,1.29-2a76.19,76.19,0,0,0,11.45-33.53c.24-2.43.36-4.88.36-7.37,0-7.94-.14-8.79-1.48-15.23L106,119.17c-.44-1.72-.85-3.31-.86-3.32A143.2,143.2,0,0,1,99.56,87.2c-.16-1.83-.38-5.63-.49-7.48h0C99,77.78,99,75.84,99,73.88s0-3.76.1-5.62q.25-6.26,1-12.34c.29-2.38.64-4.73,1.06-7.07A97.73,97.73,0,0,1,106.18,33q.93-2.27,2-4.47a54.56,54.56,0,0,1,33.23-28,106.3,106.3,0,0,0-4.51,13.57v.07A102.87,102.87,0,0,0,134.53,26q-.43,4.59-.43,9.28a97.76,97.76,0,0,0,21.53,61.38s3.59,4.23,8.45,10.07c8.09,9.72,19.67,23.91,24,30.49.64,1,1.23,2,1.84,3,2.45,4,5.53,7.89,7.73,12.08,3.47,5.49,5.84,11.5,8.55,17.47a143.26,143.26,0,0,1,11.36,38.63c.37,2.57.68,5.14.92,7.73C218.59,217.26,218.68,218.42,218.75,219.59Z"/></svg>