<svg id="Capa_1" data-name="Capa 1" xmlns="http://www.w3.org/2000/svg" xmlns:xlink="http://www.w3.org/1999/xlink" viewBox="0 0 500 500"><defs><style>.cls-1{fill:url(#Degradado_sin_nombre_36);}.cls-2{fill:#71778a;}.cls-3{fill:url(#Degradado_sin_nombre_34);}</style><linearGradient id="Degradado_sin_nombre_36" x1="360.44" y1="2022.25" x2="111.51" y2="2022.25" gradientTransform="matrix(1, 0, 0, -1, 0, 2306.5)" gradientUnits="userSpaceOnUse"><stop offset="0" stop-color="#e6e9f0"/><stop offset="0.19" stop-color="#e1e5ec"/><stop offset="0.4" stop-color="#d4d8e1"/><stop offset="0.63" stop-color="#bec2ce"/><stop offset="0.86" stop-color="#9fa4b5"/><stop offset="1" stop-color="#878da1"/></linearGradient><linearGradient id="Degradado_sin_nombre_34" x1="377.19" y1="190.54" x2="196.29" y2="190.54" gradientUnits="userSpaceOnUse"><stop offset="0" stop-color="#e6e9f0"/><stop offset="0.04" stop-color="#e1e4ec"/><stop offset="0.48" stop-color="#b1b5c4"/><stop offset="0.81" stop-color="#9298aa"/><stop offset="1" stop-color="#878da1"/></linearGradient></defs><path class="cls-1" d="M258.62,310.9l-.19.24q-1,1.28-2.07,2.55c-.71.84-1.53,1.81-2.32,2.72s-1.55,1.74-2.35,2.61c-3.07,3.35-6.38,6.65-9.85,9.88l-1.07,1-.66.6c-.57.54-1.16,1.06-1.75,1.58l-1.86,1.64-.63.54-1.15,1c-1.36,1.17-2.76,2.32-4.17,3.45l-1.76,1.39c-.58.46-1.16.93-1.76,1.39s-1.17.93-1.77,1.36q-1.66,1.28-3.36,2.52c-.21.14-.42.3-.63.46l-1.37,1c-1.11.8-2.23,1.58-3.34,2.35l-.66.46c-.46.31-.93.62-1.37.93-2.88,1.93-5.75,3.74-8.57,5.43l-.09.06-.09.05-.1.06a81.5,81.5,0,0,0-33.15,39.68,133.24,133.24,0,0,1-23.29-19.07c-.56-.49-1.11-1-1.66-1.54q-4-4.29-7.67-8.93l-.06-.08a133.28,133.28,0,0,1-25.06-111.54c0-.21.1-.41.14-.62v0a133.35,133.35,0,0,1,56.8-81.27,59.23,59.23,0,0,0-4,6.07,57.1,57.1,0,0,0-5.17,12.06c-.44,1.44-.82,2.9-1.14,4.39-.07.29-.13.59-.19.88s-.11.53-.15.79c-.15.78-.28,1.56-.4,2.35l-.15,1.13-.09.75a60.18,60.18,0,0,0-.36,6.58c0,1.69.07,3.35.21,5A57.42,57.42,0,0,0,184,254.63a61.09,61.09,0,0,0,5.87,3.78,64.71,64.71,0,0,0,6.36,3.14,63.31,63.31,0,0,0,8.79,3L215.91,268c8.13,2.5,17.94,8.62,18.48,9C249.06,286.88,256.27,297.35,258.62,310.9Z"/><path class="cls-2" d="M227.51,219.9a93.12,93.12,0,0,1-9.8,12.16c-.13.12-2,1.86-2,1.92l-.05.05q-1,.93-1.89,1.92l-.16.16a93.12,93.12,0,0,0-17.3,25.44,66,66,0,0,1-6.37-3.14,61.09,61.09,0,0,1-5.87-3.78,57.46,57.46,0,0,1-23.73-41.92c-.14-1.65-.21-3.31-.21-5a60.18,60.18,0,0,1,.36-6.58l.09-.75.15-1.13c.12-.79.25-1.57.4-2.35,0-.26.09-.53.15-.79s.12-.59.19-.88c.32-1.49.7-2.95,1.14-4.39a36.28,36.28,0,0,0,64.94,29.08Z"/><path class="cls-2" d="M388.49,275v.69A176.54,176.54,0,0,1,303,425.26H303a173.63,173.63,0,0,1-47,19.62s-5.06,1.28-7.45,1.92q-4.55,1.2-8.91,2.78c-1.39.46-2.78,1-4.14,1.55a1.69,1.69,0,0,0-.31.13A69.79,69.79,0,0,0,210,469.2q-1.53,1.71-2.95,3.53a69.74,69.74,0,0,0-9.39,16A68.3,68.3,0,0,0,194,500c-.21-.24-.41-.46-.61-.72a119.57,119.57,0,0,1-7.83-10.76A116.12,116.12,0,0,1,167,426.87v-3.69c0-.88.06-1.77.12-2.64a81.07,81.07,0,0,1,38.54-64.46l.1-.06.09,0,.09-.06c2.82-1.69,5.69-3.5,8.57-5.44.47-.29.93-.6,1.37-.92l.66-.47c1.12-.76,2.23-1.54,3.34-2.34.47-.32.93-.65,1.37-1l.63-.47c1.13-.82,2.25-1.66,3.36-2.51.6-.46,1.18-.93,1.77-1.36s1.17-.93,1.76-1.39l1.76-1.39q2.08-1.69,4.17-3.45l1.15-1,.63-.55c.62-.53,1.24-1.08,1.86-1.63s1.18-1,1.75-1.58c.22-.2.47-.39.66-.6.36-.32.72-.65,1.07-1,3.47-3.24,6.78-6.52,9.85-9.87.8-.87,1.59-1.74,2.35-2.61s1.58-1.82,2.32-2.73,1.39-1.69,2.07-2.54a2.23,2.23,0,0,1,.19-.24,178.12,178.12,0,0,0,11.24-16,174.86,174.86,0,0,0,9.08-16.49,9.65,9.65,0,0,1,18.35,4.18,9.47,9.47,0,0,1-.09,1.3c-.07.33-.13.65-.19,1a171.86,171.86,0,0,1-6.35,23.7A140.33,140.33,0,0,1,283.54,325c-4,7.88-8.49,15.77-12.46,22.16a28.64,28.64,0,0,0-1.45,2.94l-.21.55A22.21,22.21,0,0,0,290.06,381c7.76,0,15-3.61,20.48-8a177,177,0,0,0,59.35-99.29c.05-.27.11-.54.17-.83a9.32,9.32,0,0,1,7.15-6.95,9.1,9.1,0,0,1,2-.21A9.34,9.34,0,0,1,388.49,275Z"/><path class="cls-3" d="M377.19,266a9.32,9.32,0,0,0-7.15,7c-.05.28-.12.55-.17.83a176.87,176.87,0,0,1-59.33,99.32c-5.47,4.35-12.72,8-20.48,8a22.2,22.2,0,0,1-20.64-30.43l.21-.55a29.6,29.6,0,0,1,1.46-2.93c4-6.37,8.51-14.25,12.46-22.16a140.92,140.92,0,0,0,7.12-16.46A172,172,0,0,0,297,284.84c.06-.34.12-.66.19-1a8,8,0,0,0,.08-1.3A9.65,9.65,0,0,0,279,278.38a176,176,0,0,1-9.08,16.48,178.22,178.22,0,0,1-11.25,16c-2.34-13.55-9.56-24-24.21-33.93-.54-.37-10.35-6.5-18.48-9l-10.86-3.41a63.64,63.64,0,0,1-8.78-3,92.61,92.61,0,0,1,17.28-25.44l.16-.16c.61-.65,1.24-1.29,1.88-1.92l.06-.05s1.89-1.8,2-1.92a94,94,0,0,0,9.81-12.16,0,0,0,0,1,0,0c.53-.79,1.05-1.59,1.55-2.39A92.4,92.4,0,0,0,243,176.75q.44-4.42.43-8.95c0-9.65-.17-10.67-1.8-18.5,0,0-.71-2.75-1.36-5.24-.55-2.1-1.05-4-1.06-4a174.48,174.48,0,0,1-6.78-34.79c-.2-2.23-.47-6.84-.6-9.09h0c-.09-2.36-.13-4.71-.13-7.09s0-4.57.13-6.83q.28-7.59,1.22-15,.52-4.32,1.28-8.58a118.11,118.11,0,0,1,6.14-19.25q1.13-2.74,2.4-5.43A66.28,66.28,0,0,1,283.23,0a130.45,130.45,0,0,0-5.48,16.48v.09a126.36,126.36,0,0,0-2.85,14.32q-.52,5.56-.53,11.27a118.87,118.87,0,0,0,26.15,74.55s4.36,5.14,10.27,12.23c9.82,11.8,23.89,29,29.17,37,.77,1.17,1.49,2.4,2.23,3.6,3,4.9,6.72,9.59,9.39,14.68,4.22,6.67,7.09,14,10.39,21.21a173.92,173.92,0,0,1,13.8,46.92q.68,4.68,1.11,9.39C377,263.18,377.1,264.6,377.19,266Z"/></svg>