<svg id="Capa_1" data-name="Capa 1" xmlns="http://www.w3.org/2000/svg" xmlns:xlink="http://www.w3.org/1999/xlink" viewBox="0 0 500 500"><defs><style>.cls-1{fill:url(#Degradado_sin_nombre_163);}.cls-2{fill:#d2001b;}.cls-3{fill:url(#Degradado_sin_nombre_157);}</style><linearGradient id="Degradado_sin_nombre_163" x1="360.05" y1="3084.5" x2="112" y2="3084.5" gradientTransform="matrix(1, 0, 0, -1, 0, 3368.62)" gradientUnits="userSpaceOnUse"><stop offset="0" stop-color="#fbd823"/><stop offset="0.16" stop-color="#fbd322"/><stop offset="0.34" stop-color="#fcc61e"/><stop offset="0.52" stop-color="#fcb018"/><stop offset="0.71" stop-color="#fd9010"/><stop offset="0.91" stop-color="#fe6906"/><stop offset="1" stop-color="#ff5300"/></linearGradient><linearGradient id="Degradado_sin_nombre_157" x1="376.74" y1="190.75" x2="196.48" y2="190.75" gradientUnits="userSpaceOnUse"><stop offset="0" stop-color="#fbd823"/><stop offset="0.26" stop-color="#fcae18"/><stop offset="0.6" stop-color="#fe7d0b"/><stop offset="0.86" stop-color="#ff5e03"/><stop offset="1" stop-color="#ff5300"/></linearGradient></defs><path class="cls-1" d="M258.59,310.68c-.07.08-.13.17-.19.25-.67.84-1.36,1.69-2.06,2.53s-1.53,1.81-2.31,2.72-1.55,1.73-2.34,2.6c-3.07,3.34-6.36,6.63-9.82,9.84l-1.06,1-.66.6c-.57.53-1.16,1.05-1.75,1.58l-1.85,1.62-.63.54c-.37.33-.76.66-1.14,1-1.36,1.17-2.75,2.31-4.16,3.44l-1.75,1.38c-.59.47-1.16.93-1.76,1.39s-1.17.93-1.76,1.36c-1.11.84-2.23,1.68-3.35,2.5l-.63.46c-.46.34-.93.66-1.36,1-1.11.79-2.23,1.57-3.33,2.34l-.66.46-1.36.92c-2.87,1.93-5.73,3.74-8.55,5.42l-.08.06-.09.05-.1.06a81.08,81.08,0,0,0-33,39.54,133.19,133.19,0,0,1-23.22-19c-.56-.5-1.11-1-1.65-1.54q-4-4.28-7.65-8.9a.35.35,0,0,0,0-.08,132.8,132.8,0,0,1-25-111.14c0-.21.1-.42.14-.62v0A132.92,132.92,0,0,1,172,173a61.65,61.65,0,0,0-4,6.05,57.79,57.79,0,0,0-5.16,12c-.43,1.43-.81,2.89-1.13,4.37-.07.29-.13.59-.19.88s-.11.53-.15.79c-.15.78-.28,1.55-.4,2.34,0,.37-.1.75-.14,1.12s-.06.5-.09.75a60,60,0,0,0-.37,6.56q0,2.52.21,5a57.27,57.27,0,0,0,23.65,41.79,61.87,61.87,0,0,0,5.85,3.76,64.3,64.3,0,0,0,6.34,3.13,63.21,63.21,0,0,0,8.75,3l10.82,3.4c8.1,2.49,17.87,8.58,18.42,8.95C249.06,286.75,256.25,297.19,258.59,310.68Z"/><path class="cls-2" d="M227.59,220a93.1,93.1,0,0,1-9.77,12.11c-.13.12-2,1.85-2,1.91l-.05.05c-.64.62-1.26,1.26-1.88,1.92l-.16.16a92.62,92.62,0,0,0-17.24,25.35,63.35,63.35,0,0,1-6.35-3.13,61.87,61.87,0,0,1-5.85-3.76,57.31,57.31,0,0,1-23.65-41.78q-.21-2.46-.21-5a59.68,59.68,0,0,1,.37-6.56c0-.25.05-.5.09-.75s.09-.75.14-1.12c.12-.79.25-1.56.4-2.34,0-.26.09-.53.15-.79s.12-.59.19-.88c.32-1.48.7-2.94,1.13-4.37a36.15,36.15,0,0,0,64.71,29Z"/><path class="cls-2" d="M388,275v.69a175.91,175.91,0,0,1-85.15,149h-.05a173.46,173.46,0,0,1-46.88,19.55s-5,1.27-7.42,1.9c-3,.81-6,1.73-8.87,2.78-1.39.46-2.78,1-4.13,1.54l-.31.13a69.72,69.72,0,0,0-25.1,17.88c-1,1.14-2,2.31-2.94,3.52a69.31,69.31,0,0,0-13,27.17c-.2-.23-.4-.46-.6-.71a118.82,118.82,0,0,1-7.8-10.73,115.72,115.72,0,0,1-18.49-61.43v-3.68c0-.88.07-1.76.12-2.63a80.77,80.77,0,0,1,38.41-64.23l.1-.06.09-.06.08,0c2.82-1.68,5.68-3.49,8.55-5.42.46-.29.92-.6,1.36-.92l.66-.46q1.66-1.14,3.33-2.34c.46-.32.92-.65,1.36-1L222,345c1.12-.82,2.24-1.66,3.35-2.51.59-.46,1.18-.92,1.76-1.35s1.17-.93,1.76-1.39l1.75-1.38c1.38-1.13,2.77-2.27,4.16-3.44.38-.33.77-.65,1.14-1l.63-.54,1.85-1.63c.59-.52,1.18-1,1.75-1.57.22-.2.46-.4.66-.6l1.06-1c3.46-3.24,6.75-6.5,9.82-9.84.79-.87,1.58-1.73,2.34-2.61s1.57-1.8,2.31-2.71l2.06-2.53c.06-.08.12-.17.19-.25a176.81,176.81,0,0,0,11.2-16,173.62,173.62,0,0,0,9-16.43,9.61,9.61,0,0,1,18.28,4.16,9.36,9.36,0,0,1-.08,1.3c-.07.33-.13.65-.19,1a172.26,172.26,0,0,1-6.33,23.63,138.27,138.27,0,0,1-7.1,16.4c-3.93,7.86-8.46,15.72-12.41,22.09a27.26,27.26,0,0,0-1.44,2.92c-.08.18-.15.37-.22.55a22.12,22.12,0,0,0,20.57,30.3c7.74,0,15-3.59,20.41-7.93a176.52,176.52,0,0,0,38.13-44.94,174.73,174.73,0,0,0,21-54c0-.28.11-.54.16-.83a9.32,9.32,0,0,1,7.13-6.93,9.76,9.76,0,0,1,1.94-.21A9.31,9.31,0,0,1,388,275Z"/><path class="cls-3" d="M376.74,266a9.3,9.3,0,0,0-7.12,6.94c-.06.28-.12.55-.17.82a176.22,176.22,0,0,1-59.12,99c-5.45,4.34-12.67,7.94-20.41,7.94a22.13,22.13,0,0,1-20.57-30.32c.07-.19.14-.37.22-.55a26.36,26.36,0,0,1,1.44-2.92c3.95-6.35,8.48-14.2,12.42-22.08a140.74,140.74,0,0,0,7.09-16.41,170.71,170.71,0,0,0,6.33-23.62c.06-.34.12-.66.19-1a9.32,9.32,0,0,0,.09-1.29,9.61,9.61,0,0,0-18.28-4.16,177.25,177.25,0,0,1-20.26,32.4c-2.34-13.49-9.52-23.93-24.13-33.81-.54-.37-10.31-6.47-18.41-8.95l-10.82-3.4a62.76,62.76,0,0,1-8.75-3,92.55,92.55,0,0,1,17.22-25.35l.15-.16c.62-.65,1.25-1.29,1.88-1.92l.06-.05s1.89-1.79,2-1.91A94,94,0,0,0,227.58,220s0,0,0,0c.54-.79,1.05-1.58,1.56-2.39A92,92,0,0,0,243,177q.43-4.41.43-8.92c0-9.61-.16-10.64-1.79-18.43l-1.36-5.23c-.54-2.09-1-4-1.05-4a174.13,174.13,0,0,1-6.76-34.67c-.2-2.22-.46-6.82-.59-9.06h0c-.1-2.35-.14-4.69-.14-7.07s0-4.54.13-6.8q.3-7.56,1.22-14.94c.35-2.87.78-5.72,1.27-8.55a118.23,118.23,0,0,1,6.12-19.18c.75-1.82,1.55-3.63,2.39-5.41A66,66,0,0,1,283.12.88a128,128,0,0,0-5.47,16.42v.09a125.92,125.92,0,0,0-2.84,14.27q-.53,5.55-.52,11.23a118.4,118.4,0,0,0,26.06,74.29s4.34,5.12,10.22,12.18c9.79,11.77,23.81,28.94,29.07,36.9.78,1.17,1.49,2.39,2.23,3.6,3,4.88,6.69,9.55,9.36,14.62,4.2,6.64,7.06,13.91,10.35,21.14a173.11,173.11,0,0,1,13.74,46.75q.69,4.66,1.11,9.36C376.54,263.13,376.65,264.55,376.74,266Z"/></svg>