<svg xmlns="http://www.w3.org/2000/svg" xmlns:xlink="http://www.w3.org/1999/xlink" viewBox="0 0 896.8 852.9"><defs><style>.cls-1{fill:#6b6b6b;}.cls-2{fill:#dadada;}.cls-3{fill:#787878;}.cls-4{fill:url(#Degradado_sin_nombre_118);}</style><linearGradient id="Degradado_sin_nombre_118" x1="422.98" y1="606" x2="422.98" y2="423" gradientUnits="userSpaceOnUse"><stop offset="0" stop-color="#999" stop-opacity="0"/><stop offset="0.14" stop-color="#9a9a9a" stop-opacity="0.02"/><stop offset="0.28" stop-color="#9e9e9e" stop-opacity="0.07"/><stop offset="0.41" stop-color="#a4a3a4" stop-opacity="0.15"/><stop offset="0.54" stop-color="#adabad" stop-opacity="0.27"/><stop offset="0.67" stop-color="#b8b6b8" stop-opacity="0.43"/><stop offset="0.79" stop-color="#c5c3c5" stop-opacity="0.61"/><stop offset="0.92" stop-color="#d5d2d5" stop-opacity="0.83"/><stop offset="1" stop-color="#e1dde1"/></linearGradient></defs><g id="Capa_2" data-name="Capa 2"><g id="Capa_1-2" data-name="Capa 1"><path class="cls-1" d="M0,852.9c5.53-24,11.2-47.9,20.06-70.93a41.52,41.52,0,0,1,13.67-18c33.42-26.12,69.86-47.45,106.91-67.82C173.56,678,207,660.8,239.46,641.87c1-.59,2-2,3.48-1-1.7,3.6-3.68,7.09-5.05,10.8-9.17,24.74-.62,53.8,20.86,72.1,18.46,15.71,40.33,23.72,63.67,28.07,36,6.72,72.15,6.95,108.37,2.12,34.24-4.56,66.38-15.29,95.95-33.35,36.68-22.4,64.82-53.4,89-88.43.66-1,1.38-1.9,1.18-3.18,62.93,29,126.07,57.62,188.67,87.35,21,10,37.15,26.71,51.55,44.9,20.51,25.92,31.53,56,38.7,87.78.29,1.3.66,2.58,1,3.86Z"/><path class="cls-2" d="M302.9,498c-10-11.66-18.76-24.06-24.94-38.24-8.08-18.51-13.44-37.89-17.76-57.48-2.17-9.85-5.28-16.91-16.17-19.44-9.63-2.23-13-10.24-13-19.46.06-25-4.59-49.43-8.77-73.92-.94-5.55-1.71-11.14-2.22-16.74-.39-4.23-.17-9.07,4.16-10.93,4-1.72,8.77-1.83,12.74,1.28,5.19,8.21,6.9,17.68,9.45,26.89.15-10.1.86-20.05,1.62-30,.92-11.93,1.23-24,3.6-35.69,5.06-24.92,9.89-49.84,13.58-75,2.43-16.57,10.08-30.48,25.77-38.85,12.57-6.71,25.72-5.92,39-3.8,19,3,37.88,4.1,57.06,1.3,26-3.81,52.26-5.93,78.6-4.65,13.13.63,26.12,2.51,38.45,7.63,17.76,7.38,26.66,20.55,25.57,39.76a342.1,342.1,0,0,0,1.4,56.81c1.3,11.91,3.25,23.74,8.81,34.61,1.47,2.86,3.07,6.32,6,7.1,6.72,1.78,7.66,7.2,9.13,12.37a145.46,145.46,0,0,1,5.28,32.9L583.64,263c3.17-1.67,5.16-4.64,7.67-7,5.68-5.39,15.38-3.79,19.18,3.23,3,5.58,2.68,11.52,2,17.5A143.09,143.09,0,0,1,599,322.25c-4.82,9.95-6.2,20.95-8.8,31.54-5.17,21-18.31,33.24-39.4,37.11-2.36.43-4.19,1.05-4.85,3.49-2.55,9.42-4.92,18.88-6,28.61-1.51,1.7-1.72,3.83-2.09,6-2.2,12.73-5.7,25-15,34.54-6.73,6.88-13.27,13.95-20.82,20a204.77,204.77,0,0,1-59,33.47c-9.62,2.92-19.18,6-29.17,7.56-8.81,1.32-17.7,2.47-26.54,2.11A246.24,246.24,0,0,1,353.89,523c-15.05-3.23-29.09-8.71-41.63-17.94C309.11,502.73,307,499,302.9,498Z"/><path class="cls-2" d="M616.88,629c.2,1.28-.52,2.23-1.18,3.18-24.14,35-52.28,66-89,88.43C497.17,738.68,465,749.41,430.79,754c-36.22,4.83-72.4,4.6-108.37-2.12-23.34-4.35-45.21-12.36-63.67-28.07-21.48-18.3-30-47.36-20.86-72.1,1.37-3.71,3.35-7.2,5.05-10.8l-.06.07.67-.4-.68-.82c5.26-4.65,11.51-7.74,17.63-11q22-11.62,45-21.15c1.71-.7,3.31-1.45,3.44-3.75,1.22-20.67-6.76-126.85-9.93-147.46,2.28-.31,21.21,10.17,23.49,10.21,34.25.65,52.56,24.89,86.8,25,40.4.15,86.75-81.42,127.15-80.68,1.16,15.55,4.25,159.14,4.49,174.73.08,4.79,1.16,8.64,6.64,10.73,19.91,7.57,39,17.06,57.83,26.9C609.2,625.29,613.72,625.8,616.88,629Z"/><path class="cls-3" d="M583.64,263l-23.43,31.38a145.46,145.46,0,0,0-5.28-32.9c-1.47-5.17-2.41-10.59-9.13-12.37-2.91-.78-4.51-4.24-6-7.1-5.56-10.87-7.51-22.7-8.81-34.61a342.1,342.1,0,0,1-1.4-56.81c1.09-19.21-7.81-32.38-25.57-39.76-12.33-5.12-25.32-7-38.45-7.63-26.34-1.28-52.57.84-78.6,4.65-19.18,2.8-38.07,1.74-57.06-1.3-13.25-2.12-26.4-2.91-39,3.8-15.69,8.37-23.34,22.28-25.77,38.85-3.69,25.18-8.52,50.1-13.58,75-2.37,11.66-2.68,23.76-3.6,35.69-.76,9.94-1.47,19.89-1.62,30-2.55-9.21-4.26-18.68-9.45-26.89-7.09-39-5.82-78.65-9.17-117.93-1.07-12.63-2.64-25.18.14-37.78C231.5,91,240,78.25,254.93,70.25c1.88-1,3.09-2,3.37-4.35,1.82-16,10.53-27.84,23.05-37.07,21.75-16,46.57-24.19,73.23-26.63C393.32-1.35,432.07,0,470.88,2c29.59,1.5,52.94,15.09,74.58,33.4,2.29,1.93,4.53,3.93,6.8,5.89,13.49,11.65,25.39,24.49,31.19,41.88A28.07,28.07,0,0,0,586.18,89c13.73,22,11.65,46.37,10.06,70.42-2.18,32.91-8.14,65.39-12.17,98.09C583.84,259.35,583.78,261.18,583.64,263Z"/><path class="cls-4" d="M539.5,518c0-32-2.17-63,.37-95-1.51,1.7-1.72,3.83-2.09,6-2.2,12.73-5.7,25-15,34.54-6.73,6.88-13.27,13.95-20.82,20a204.77,204.77,0,0,1-59,33.47c-9.62,2.92-19.18,6-29.17,7.56-8.81,1.32-17.7,2.47-26.54,2.11A246.24,246.24,0,0,1,353.89,523c-15.05-3.23-29.09-8.71-41.63-17.94-3.15-2.32-5.23-6.1-9.36-7.1a161.3,161.3,0,0,0,3,27c-.34,5.79,4.13,53.81,2.19,81,2.28-.31,66.73-2.25,69-2.2,34.25.64,41.33,2.07,75.58,2.2,40.4.16,49.94-13.43,90.34-12.7C539,586.6,541.3,524.6,539.5,518Z"/><path class="cls-1" d="M242.87,639.73l.68.82-.67.4A.7.7,0,0,1,242.87,639.73Z"/></g></g></svg>
